<svg width="720" height="220" viewBox="0 0 720 220" fill="none" xmlns="http://www.w3.org/2000/svg" role="img" aria-labelledby="title desc">
  <title id="title">MHStore logo</title>
  <desc id="desc">Shopping bag with frozen food icon and MHStore wordmark</desc>
  <defs>
    <linearGradient id="bag" x1="42" y1="24" x2="236" y2="200" gradientUnits="userSpaceOnUse">
      <stop stop-color="#2F8FD1" />
      <stop offset="1" stop-color="#5CB6C2" />
    </linearGradient>
    <linearGradient id="word" x1="262" y1="62" x2="671" y2="154" gradientUnits="userSpaceOnUse">
      <stop stop-color="#003B64" />
      <stop offset="0.52" stop-color="#1E83BE" />
      <stop offset="1" stop-color="#5CB6C2" />
    </linearGradient>
    <linearGradient id="coral" x1="66" y1="92" x2="159" y2="151" gradientUnits="userSpaceOnUse">
      <stop stop-color="#FF8B72" />
      <stop offset="1" stop-color="#E45E4F" />
    </linearGradient>
    <filter id="softShadow" x="0" y="0" width="260" height="220" color-interpolation-filters="sRGB">
      <feDropShadow dx="0" dy="16" stdDeviation="16" flood-color="#0B5C8D" flood-opacity="0.16" />
    </filter>
  </defs>

  <g filter="url(#softShadow)">
    <path d="M58 94L64 58C66 47 75 39 86 38L111 35C114 5 161 5 164 35L190 38C201 39 210 47 212 58L218 94" stroke="url(#bag)" stroke-width="10" stroke-linecap="round" stroke-linejoin="round" />
    <path d="M114 42C114 21 160 21 160 42V58" stroke="url(#bag)" stroke-width="10" stroke-linecap="round" />
    <path d="M47 137L74 148C111 163 157 163 194 148L225 136V181C225 190 219 198 210 200C159 212 111 212 60 200C52 198 47 190 47 181V137Z" fill="white" stroke="url(#bag)" stroke-width="10" stroke-linejoin="round" />
    <path d="M58 137C100 153 167 153 215 136" stroke="#E7F5FB" stroke-width="5" stroke-linecap="round" />

    <path d="M81 86C105 84 120 99 126 124C100 124 84 110 81 86Z" fill="#4F9DD0" />
    <path d="M83 91C100 96 112 106 122 122" stroke="white" stroke-width="3" stroke-linecap="round" />
    <circle cx="91" cy="94" r="3" fill="white" />

    <path d="M68 118C78 144 110 150 135 139C124 119 92 109 68 118Z" fill="url(#coral)" />
    <path d="M76 123C96 125 115 131 132 139" stroke="white" stroke-width="4" stroke-linecap="round" />
    <circle cx="119" cy="132" r="4" fill="white" />

    <path d="M137 121C152 100 179 99 195 119C178 127 157 130 137 121Z" fill="#6DBD66" />
    <path d="M156 128C161 115 172 105 188 100" stroke="white" stroke-width="4" stroke-linecap="round" />
    <path d="M172 128C174 119 181 112 192 109" stroke="white" stroke-width="4" stroke-linecap="round" />

    <g stroke="#2F8FD1" stroke-width="6" stroke-linecap="round">
      <path d="M137 163V191" />
      <path d="M123 171L151 187" />
      <path d="M151 171L123 187" />
      <path d="M118 179H156" />
    </g>
  </g>

  <path d="M282 153V67H303L336 123L369 67H390V153H369V104L345 146H327L303 104V153H282Z" fill="#003B64" />
  <path d="M410 153V67H431V101H471V67H492V153H471V119H431V153H410Z" fill="#003B64" />
  <path d="M552 155C532 155 517 149 506 137L518 122C527 131 538 136 552 136C562 136 568 132 568 126C568 121 565 118 557 116L540 112C521 108 512 99 512 84C512 71 525 64 545 64C563 64 576 69 586 79L575 95C566 87 557 83 545 83C536 83 531 86 531 91C531 96 535 99 543 101L560 105C579 109 588 118 588 133C588 147 574 155 552 155Z" fill="url(#word)" />
  <path d="M620 153C604 153 595 145 595 130V102H584V85H595V69H615V85H632V102H615V128C615 133 618 136 623 136C626 136 629 136 632 135V151C628 152 624 153 620 153Z" fill="url(#word)" />
  <path d="M664 155C642 155 628 140 628 119C628 98 642 83 664 83C686 83 700 98 700 119C700 140 686 155 664 155ZM664 137C674 137 681 130 681 119C681 108 674 101 664 101C654 101 647 108 647 119C647 130 654 137 664 137Z" fill="url(#word)" />
  <path d="M676 58C684 50 698 55 698 68C698 82 682 90 676 94C670 90 654 82 654 68C654 55 668 50 676 58Z" fill="#FF7B66" />
</svg>
